# AST/ASF file generated using VICON BodyLanguage
# -----------------------------------------------
:version 1.10
:name VICON
:units
  mass 1.0
  length 0.45
  angle deg
:documentation
   .ast/.asf automatically generated from VICON data using
   VICON BodyBuilder and BodyLanguage model FoxedUp or BRILLIANT.MOD
:root
   order TX TY TZ RX RY RZ
   axis XYZ
   position 0 0 0  
   orientation 0 0 0 
:bonedata
  begin
     id 1 
     name lhipjoint
     direction 0.567149 -0.783011 0.255413 
     length 2.28399 
     axis 0 0 0  XYZ
  end
  begin
     id 2 
     name lfemur
     direction 0.34202 -0.939693 0  
     length 7.34031  
     axis 0 0 20  XYZ
    dof rx ry rz
    limits (-160.0 20.0)
           (-70.0 70.0)
           (-60.0 70.0)
  end
  begin
     id 3 
     name ltibia
     direction 0.34202 -0.939693 0   
     length 6.9833   
     axis 0 0 20   XYZ
    dof rx
    limits (-10.0 170.0)
  end
  begin
     id 4 
     name lfoot
     direction 0.136498 -0.375025 0.91691   
     length 2.33665   
     axis -90 7.62852e-016 20   XYZ
    dof rx rz
    limits (-45.0 90.0)
           (-70.0 20.0)
  end
  begin
     id 5 
     name ltoes
     direction 1.5367e-011 -4.21617e-011 1   
     length 1.15039   
     axis -90 7.62852e-016 20   XYZ
    dof rx
    limits (-90.0 20.0)
  end
  begin
     id 6 
     name rhipjoint
     direction -0.602854 -0.758518 0.247423   
     length 2.35775  
     axis 0 0 0  XYZ 
  end
  begin
     id 7 
     name rfemur
     direction -0.34202 -0.939693 0   
     length 7.43932   
     axis 0 0 -20   XYZ
    dof rx ry rz
    limits (-160.0 20.0)
           (-70.0 70.0)
           (-70.0 60.0)
  end
  begin
     id 8 
     name rtibia
     direction -0.34202 -0.939693 0   
     length 7.11893   
     axis 0 0 -20   XYZ
    dof rx
    limits (-10.0 170.0)
 end
 begin
     id 9 
     name rfoot
     direction -0.131771 -0.362037 0.922803   
     length 2.53019  
     axis -90 -7.62852e-016 -20   XYZ
    dof rx rz
    limits (-45.0 90.0)
           (-20.0 70.0)
  end
  begin
     id 10 
     name rtoes
     direction -1.53733e-011 -4.21932e-011 1   
     length 1.24596   
     axis -90 -7.62852e-016 -20   XYZ
    dof rx
    limits (-90.0 20.0)
  end
  begin
     id 11 
     name lowerback
     direction 0.0235427 0.999023 -0.0374125   
     length 2.21768   
     axis 0 0 0   XYZ
    dof rx ry rz
    limits (-20.0 45.0)
           (-30.0 30.0)
           (-30.0 30.0)
  end
  begin
     id 12 
     name upperback
     direction 0.0302156 0.996818 -0.073759   
     length 2.20352   
     axis 0 0 0   XYZ
    dof rx ry rz
    limits (-20.0 45.0)
           (-30.0 30.0)
           (-30.0 30.0)
  end
  begin
     id 13 
     name thorax
     direction 0.0187169 0.998235 -0.0563532   
     length 2.22103   
     axis 0 0 0   XYZ
    dof rx ry rz
    limits (-20.0 45.0)
           (-30.0 30.0)
           (-30.0 30.0)
  end
  begin
     id 14 
     name lowerneck
     direction -0.119528 0.987423 0.103481   
     length 1.72948   
     axis 0 0 0   XYZ
    dof rx ry rz
    limits (-20.0 45.0)
           (-30.0 30.0)
           (-30.0 30.0)
  end
  begin
     id 15 
     name upperneck
     direction 0.248049 0.963095 -0.104496   
     length 1.74979   
     axis 0 0 0   XYZ
    dof rx ry rz
    limits (-20.0 45.0)
           (-30.0 30.0)
           (-30.0 30.0)
  end
  begin
     id 16
     name head
     direction 0.0903589 0.994284 -0.056876  
     length 1.78268  
     axis 0 0 0   XYZ
    dof rx ry rz
    limits (-20.0 45.0)
           (-30.0 30.0)
           (-30.0 30.0)
  end
  begin
     id 17 
     name lclavicle
     direction 0.946008 0.242039 -0.215608  
     length 3.80783  
     axis 0 0 0   XYZ
    dof ry rz
    limits (-20.0 10.0)
           (0.0 20.0)
  end
  begin
     id 18 
     name lhumerus
     direction 1 -4.48991e-011 -2.25695e-027   
     length 4.83125   
     axis 180 -30 -90   XYZ
    dof rx ry rz
    limits (-60.0 90.0)
           (-90.0 90.0)
           (-90.0 90.0)
  end
  begin
     id 19
     name lradius
     direction 0.999991 0.00366712 -0.00211721   
     length 3.00391   
     axis 180 -30 -90   XYZ
    dof rx
    limits (-10.0 170.0)
  end
  begin
     id 20
     name lwrist
     direction 0.999991 0.00393016 -0.00141978   
     length 1.50195   
     axis -1.00488e-014 90 90   XYZ
    dof ry
    limits (-180.0 0.0)
 end
  begin
     id 21 
     name lhand
     direction 1 -4.49123e-011 2.72098e-026   
     length 1.2717   
     axis -1.73687e-014 90 90   XYZ
    dof rx rz
    limits (-90.0 90.0)
           (-45.0 45.0)
  end
  begin
     id 22 
     name lfingers
     direction 1 -4.48678e-011 5.4479e-026   
     length 1.02528   
     axis -3.47372e-014 90 90   XYZ
    dof rx
    limits (0.0 90.0)
  end
  begin
     id 23
     name lthumb
     direction 0.707107 -6.34851e-011 0.707107   
     length 1.4721   
     axis -90 45 -1.62303e-014   XYZ
    dof rx rz
    limits (-45.0 45.0)
           (-45.0 45.0)
  end
  begin
     id 24 
     name rclavicle
     direction -0.981723 0.189447 -0.0181673   
     length 3.74989  
     axis 0 0 0   XYZ 
    dof ry rz
    limits (-10.0 20.0)
           (-20.0 0.0)
  end
  begin
     id 25 
     name rhumerus
     direction -1 -4.48985e-011 2.38206e-027  
     length 4.61118   
     axis 180 30 90   XYZ
    dof rx ry rz
    limits (-90.0 60.0)
           (-90.0 90.0)
           (-90.0 90.0)
  end
  begin
     id 26 
     name rradius
     direction -1 -4.48977e-011 7.41019e-027   
     length 2.91491   
     axis 180 30 90   XYZ
    dof rx
    limits (-10.0 170.0)
  end
  begin
     id 27 
     name rwrist
     direction -1 -4.48549e-011 1.3624e-026   
     length 1.45745   
     axis -1.00488e-014 -90 -90   XYZ
    dof ry
    limits (-180.0 0.0)
  end
  begin
     id 28
     name rhand
     direction -1 -4.49107e-011 2.72109e-026   
     length 1.30769   
     axis -1.73687e-014 -90 -90   XYZ
    dof rx rz
    limits (-90.0 90.0)
           (-45.0 45.0)
  end
  begin
     id 29
     name rfingers
     direction -1 -4.48919e-011 5.44468e-026   
     length 1.05429   
     axis -3.47372e-014 -90 -90   XYZ
    dof rx
    limits (0.0 90.0)
  end
  begin
     id 30
     name rthumb
     direction -0.707107 -6.35315e-011 0.707107   
     length 1.51376   
     axis -90 -45 1.62303e-014   XYZ
    dof rx rz
    limits (-45.0 45.0)
           (-45.0 45.0)
  end
:hierarchy
  begin
    root lhipjoint rhipjoint lowerback
    lhipjoint lfemur
    lfemur ltibia
    ltibia lfoot
    lfoot ltoes
    rhipjoint rfemur
    rfemur rtibia
    rtibia rfoot
    rfoot rtoes
    lowerback upperback
    upperback thorax
    thorax lowerneck lclavicle rclavicle
    lowerneck upperneck
    upperneck head
    lclavicle lhumerus
    lhumerus lradius
    lradius lwrist
    lwrist lhand lthumb
    lhand lfingers
    rclavicle rhumerus
    rhumerus rradius
    rradius rwrist
    rwrist rhand rthumb
    rhand rfingers
  end

#!OML:ASF X:\für Bonn\!DataBase\2005_08_11_Bastian_Final\c3d\Bastian.ASF
:FULLY-SPECIFIED
:DEGREES
16
root -1.6413 17.2359 1.55708 174.492 -4.24464 -176.067
lowerback 14.6244 -0.98568 -0.18822
upperback 4.97768 -1.94119 0.568371
thorax -2.90995 -1.23595 1.03967
lowerneck -10.5065 -6.76053 -3.9281
upperneck -5.84666 -7.62742 12.6678
head 0.694635 -3.22021 4.58411
rclavicle 3.34952e-014 1.19271e-015
rhumerus 79.9118 19.4267 19.9387
rradius 39.8423
rwrist -68.945
rhand -49.3996 -7.93468
rfingers 7.12502
rthumb -22.0127 -36.702
lclavicle 3.34952e-014 1.19271e-015
lhumerus 76.1186 -24.2441 -28.3974
lradius 31.2847
lwrist 23.5564
lhand -44.4479 20.5554
lfingers 7.12502
lthumb -17.2523 49.8096
rfemur -9.37059 0.528414 25.3617
rtibia 42.7401
rfoot -22.2675 -10.7248
rtoes -3.09515
lfemur -5.70946 4.35376 -16.341
ltibia 35.9765
lfoot -18.4719 -6.00837
ltoes -12.7159
17
root -1.64113 17.2167 1.56497 174.14 -4.14501 -176.219
lowerback 15.1061 -0.9249 -0.279016
upperback 5.01612 -1.89839 0.500635
thorax -3.12809 -1.2228 1.02791
lowerneck -10.3163 -6.80799 -3.99783
upperneck -5.85738 -7.68141 13.0176
head 0.651531 -3.25434 4.26268
rclavicle 2.6339e-014 -1.59028e-015
rhumerus 79.8918 19.6084 19.8835
rradius 39.8949
rwrist -68.9499
rhand -49.3601 -7.94467
rfingers 7.12502
rthumb -21.9748 -36.7165
lclavicle 2.6339e-014 -1.59028e-015
lhumerus 76.3018 -24.5191 -28.3995
lradius 31.218
lwrist 23.4238
lhand -44.4667 20.7414
lfingers 7.12502
lthumb -17.2704 49.994
rfemur -9.31628 0.240307 25.1435
rtibia 43.2433
rfoot -22.299 -10.4432
rtoes -3.12873
lfemur -5.53039 4.55238 -16.4496
ltibia 36.3442
lfoot -18.6004 -6.09943
ltoes -12.8441
18
root -1.64039 17.1953 1.57302 173.767 -4.03895 -176.355
lowerback 15.602 -0.861898 -0.347789
upperback 5.06845 -1.85438 0.425821
thorax -3.33949 -1.21035 0.995627
lowerneck -10.0895 -6.84708 -4.0448
upperneck -5.88342 -7.74481 13.0016
head 0.61426 -3.30045 4.268
rclavicle 1.5704e-014 -1.63003e-014
rhumerus 79.8801 19.7972 19.8011
rradius 39.9187
rwrist -68.9489
rhand -49.3698 -7.96848
rfingers 7.12502
rthumb -21.9842 -36.7392
lclavicle 1.5704e-014 -1.63003e-014
lhumerus 76.4721 -24.8085 -28.3234
lradius 31.0978
lwrist 23.1955
lhand -44.4653 20.8801
lfingers 7.12502
lthumb -17.2691 50.1328
rfemur -9.2655 -0.0225898 24.9511
rtibia 43.7799
rfoot -22.3732 -10.2195
rtoes -3.43868
lfemur -5.39989 4.74654 -16.5327
ltibia 36.8443
lfoot -18.7614 -6.21969
ltoes -12.9643
19
root -1.64005 17.1709 1.58118 173.416 -3.94589 -176.424
lowerback 16.0927 -0.810134 -0.33616
upperback 5.10503 -1.81089 0.371288
thorax -3.56545 -1.19711 0.93875
lowerneck -9.8322 -6.89254 -4.13723
upperneck -5.90199 -7.8333 12.6715
head 0.58695 -3.36227 4.63154
rclavicle 2.93207e-014 9.93923e-015
rhumerus 79.8528 20.0035 19.6876
rradius 39.9084
rwrist -68.8196
rhand -49.3484 -7.97152
rfingers 7.12502
rthumb -21.9636 -36.7446
lclavicle 2.93207e-014 9.93923e-015
lhumerus 76.5561 -25.1129 -27.958
lradius 30.9313
lwrist 22.7311
lhand -44.384 20.9746
lfingers 7.12502
lthumb -17.1908 50.2342
rfemur -9.2574 -0.303627 24.8232
rtibia 44.3355
rfoot -22.532 -9.95311
rtoes -3.44431
lfemur -5.39632 4.91622 -16.5421
ltibia 37.5092
lfoot -18.936 -6.33334
ltoes -13.0936
20
root -1.63845 17.1414 1.58959 173.064 -3.87063 -176.492
lowerback 16.5668 -0.767011 -0.326098
upperback 5.15833 -1.78203 0.313728
thorax -3.76403 -1.19248 0.880871
lowerneck -9.6465 -6.94305 -4.17376
upperneck -5.94035 -7.90965 12.631
head 0.5481 -3.41251 4.62489
rclavicle -9.24349e-015 2.42517e-014
rhumerus 79.8212 20.2011 19.4024
rradius 39.8269
rwrist -68.5722
rhand -49.2872 -8.04283
rfingers 7.12502
rthumb -21.9048 -36.8228
lclavicle -9.24349e-015 2.42517e-014
lhumerus 76.598 -25.3962 -27.5257
lradius 30.7464
lwrist 22.2355
lhand -44.2754 21.0049
lfingers 7.12502
lthumb -17.0863 50.2736
rfemur -9.2744 -0.581736 24.6997
rtibia 44.9334
rfoot -22.7199 -9.73822
rtoes -3.52565
lfemur -5.48337 5.0731 -16.548
ltibia 38.3416
lfoot -19.138 -6.47566
ltoes -13.3324
21
root -1.63655 17.1057 1.60035 172.748 -3.78836 -176.495
lowerback 17.0228 -0.724456 -0.263408
upperback 5.20075 -1.74229 0.281789
thorax -3.96437 -1.18188 0.817205
lowerneck -9.52832 -6.98758 -4.1847
upperneck -5.96864 -7.97698 12.5785
head 0.521666 -3.45473 4.60761
rclavicle 8.15017e-015 -7.15625e-015
rhumerus 79.7372 20.4126 19.0024
rradius 39.6987
rwrist -68.173
rhand -49.1995 -8.06358
rfingers 7.12502
rthumb -21.8206 -36.8534
lclavicle 8.15017e-015 -7.15625e-015
lhumerus 76.5822 -25.6503 -26.9005
lradius 30.5214
lwrist 21.6254
lhand -44.1201 20.9845
lfingers 7.12502
lthumb -16.9368 50.2661
rfemur -9.35228 -0.836966 24.6581
rtibia 45.5574
rfoot -22.9532 -9.59965
rtoes -3.90939
lfemur -5.7228 5.20525 -16.4802
ltibia 39.3609
lfoot -19.3285 -6.64781
ltoes -13.2253
22
root -1.63387 17.0655 1.61564 172.467 -3.74311 -176.539
lowerback 17.4764 -0.69302 -0.232648
upperback 5.25474 -1.7251 0.235295
thorax -4.1498 -1.18338 0.760017
lowerneck -9.52357 -7.04938 -4.20411
upperneck -5.9689 -8.0638 12.5423
head 0.52748 -3.4998 4.59318
rclavicle 1.48095e-014 -2.46493e-014
rhumerus 79.6478 20.573 18.5116
rradius 39.5362
rwrist -67.6798
rhand -49.0763 -8.17884
rfingers 7.12502
rthumb -21.7023 -36.9824
lclavicle 1.48095e-014 -2.46493e-014
lhumerus 76.5224 -25.8438 -26.2767
lradius 30.2938
lwrist 21.0172
lhand -43.9479 20.9122
lfingers 7.12502
lthumb -16.771 50.2079
rfemur -9.5142 -1.08643 24.575
rtibia 46.2486
rfoot -23.2864 -9.50667
rtoes -4.57856
lfemur -6.11041 5.28294 -16.4751
ltibia 40.5417
lfoot -19.5682 -6.76489
ltoes -13.4109
23
root -1.63065 17.0177 1.63199 172.169 -3.69465 -176.519
lowerback 17.9473 -0.666041 -0.162616
upperback 5.31504 -1.70748 0.224734
thorax -4.33669 -1.18604 0.718591
lowerneck -9.53492 -7.1026 -4.21633
upperneck -5.96935 -8.14018 12.4748
head 0.532922 -3.53991 4.56615
rclavicle 3.27995e-015 -7.55382e-015
rhumerus 79.6075 20.6821 18.1705
rradius 39.3736
rwrist -67.2865
rhand -48.9772 -8.21904
rfingers 7.12502
rthumb -21.6071 -37.0336
lclavicle 3.27995e-015 -7.55382e-015
lhumerus 76.4551 -26.0178 -25.661
lradius 30.086
lwrist 20.4834
lhand -43.7943 20.8858
lfingers 7.12502
lthumb -16.6232 50.194
rfemur -9.68181 -1.35987 24.566
rtibia 46.9992
rfoot -23.6548 -9.42062
rtoes -5.33997
lfemur -6.56508 5.32628 -16.3963
ltibia 41.8836
lfoot -19.8346 -6.91329
ltoes -13.3107
24
root -1.62712 16.9635 1.64801 171.884 -3.68232 -176.521
lowerback 18.3842 -0.650362 -0.100739
upperback 5.38532 -1.70725 0.196515
thorax -4.49444 -1.19769 0.665434
lowerneck -9.55397 -7.16023 -4.19104
upperneck -5.99445 -8.22159 12.3774
head 0.528315 -3.58299 4.52096
rclavicle 1.20265e-014 6.36111e-015
rhumerus 79.5351 20.7837 17.7719
rradius 39.1974
rwrist -66.8231
rhand -48.8559 -8.29419
rfingers 7.12502
rthumb -21.4906 -37.122
lclavicle 1.20265e-014 6.36111e-015
lhumerus 76.4295 -26.1373 -25.2134
lradius 29.9124
lwrist 20.1058
lhand -43.6315 20.8493
lfingers 7.12502
lthumb -16.4664 50.1705
rfemur -9.89685 -1.64407 24.5308
rtibia 47.844
rfoot -24.0851 -9.36108
rtoes -5.99984
lfemur -7.10662 5.26847 -16.359
ltibia 43.3518
lfoot -20.1301 -7.05155
ltoes -12.9979
25
root -1.62262 16.901 1.66243 171.591 -3.68064 -176.528
lowerback 18.8089 -0.632916 -0.076453
upperback 5.46233 -1.71159 0.187547
thorax -4.63627 -1.2123 0.654495
lowerneck -9.5891 -7.21295 -4.21055
upperneck -6.01158 -8.2911 12.3267
head 0.533042 -3.61748 4.50145
rclavicle 1.33186e-014 3.18055e-015
rhumerus 79.4973 20.8487 17.5014
rradius 39.0512
rwrist -66.4683
rhand -48.7915 -8.33057
rfingers 7.12502
rthumb -21.4288 -37.1655
lclavicle 1.33186e-014 3.18055e-015
lhumerus 76.382 -26.2321 -24.8039
lradius 29.7634
lwrist 19.738
lhand -43.4733 20.8897
lfingers 7.12502
lthumb -16.3142 50.2234
rfemur -10.133 -1.96235 24.489
rtibia 48.7793
rfoot -24.5497 -9.32727
rtoes -6.58816
lfemur -7.6889 5.18459 -16.3294
ltibia 44.9386
lfoot -20.4995 -7.17574
ltoes -12.7989
26
root -1.6177 16.8302 1.6726 171.3 -3.69422 -176.48
lowerback 19.155 -0.63487 0.0106842
upperback 5.56858 -1.73221 0.178087
thorax -4.70625 -1.23663 0.608232
lowerneck -9.6931 -7.26713 -4.17675
upperneck -5.9994 -8.36853 12.2326
head 0.554764 -3.654 4.453
rclavicle 8.44835e-015 5.1684e-015
rhumerus 79.4924 20.858 17.3092
rradius 38.9042
rwrist -66.167
rhand -48.6983 -8.4334
rfingers 7.12502
rthumb -21.3393 -37.2785
lclavicle 8.44835e-015 5.1684e-015
lhumerus 76.4102 -26.2671 -24.7123
lradius 29.6774
lwrist 19.6827
lhand -43.3779 20.8953
lfingers 7.12502
lthumb -16.2223 50.2366
rfemur -10.3885 -2.25247 24.5114
rtibia 49.813
rfoot -25.0903 -9.29776
rtoes -7.00077
lfemur -8.32575 5.02264 -16.2302
ltibia 46.6243
lfoot -20.8624 -7.37811
ltoes -12.0097
27
root -1.61246 16.7526 1.67967 171.005 -3.72073 -176.437
lowerback 19.505 -0.634806 0.0778206
upperback 5.65175 -1.74896 0.183539
thorax -4.8014 -1.2574 0.588963
lowerneck -9.71965 -7.31865 -4.17984
upperneck -6.01652 -8.43977 12.1466
head 0.555061 -3.69108 4.41779
rclavicle 9.93923e-015 7.95139e-015
rhumerus 79.4941 20.8752 17.3015
rradius 38.8332
rwrist -65.9488
rhand -48.6453 -8.52794
rfingers 7.12502
rthumb -21.2883 -37.3788
lclavicle 9.93923e-015 7.95139e-015
lhumerus 76.475 -26.2846 -24.7793
lradius 29.6524
lwrist 19.7421
lhand -43.2461 20.9162
lfingers 7.12502
lthumb -16.0953 50.2677
rfemur -10.6643 -2.58504 24.5228
rtibia 50.9396
rfoot -25.6873 -9.27356
rtoes -7.2001
lfemur -9.0117 4.822 -16.132
ltibia 48.3977
lfoot -21.2527 -7.64276
ltoes -10.968
